<svg xmlns="http://www.w3.org/2000/svg" width="12.795" height="22.638" viewBox="0 0 12.795 22.638">
  <path id="icons8-facebook-f" d="M21.842,6.429H24.3a.492.492,0,0,0,.492-.492V2.622a.491.491,0,0,0-.455-.491C23.557,2.075,22.028,2,20.928,2c-3.022,0-4.991,1.811-4.991,5.1v3.264H12.492a.492.492,0,0,0-.492.492V14.3a.492.492,0,0,0,.492.492h3.445v9.35a.492.492,0,0,0,.492.492h3.445a.492.492,0,0,0,.492-.492V14.8H23.92a.492.492,0,0,0,.489-.438l.383-3.445a.492.492,0,0,0-.489-.546H20.366V7.905A1.476,1.476,0,0,1,21.842,6.429Z" transform="translate(-12 -2)" fill="#fff"/>
</svg>
