<?xml version="1.0" encoding="UTF-8" standalone="no"?><!-- Generator: Gravit.io --><svg xmlns="http://www.w3.org/2000/svg" xmlns:xlink="http://www.w3.org/1999/xlink" style="isolation:isolate" viewBox="0 0 300 50" width="300pt" height="50pt"><defs><clipPath id="_clipPath_cRNbqEXjTfpL8Ap7q9QivoVmrajPPdkF"><rect width="300" height="50"/></clipPath></defs><g clip-path="url(#_clipPath_cRNbqEXjTfpL8Ap7q9QivoVmrajPPdkF)"><g><g opacity="0.8"><path d=" M 20.155 26.55 L 20.155 26.55 L 20.155 26.55 Q 20.155 21.196 22.081 16.922 L 22.081 16.922 L 22.081 16.922 Q 24.006 12.648 27.294 9.658 L 27.294 9.658 L 27.294 9.658 Q 30.581 6.668 34.933 5.071 L 34.933 5.071 L 34.933 5.071 Q 39.285 3.474 44.17 3.474 L 44.17 3.474 L 44.17 3.474 Q 47.583 3.474 51.121 4.132 L 51.121 4.132 L 51.121 4.132 Q 54.659 4.789 58.165 6.512 L 58.165 6.512 L 56.224 16.531 L 56.224 16.531 Q 53.469 15.028 50.776 14.276 L 50.776 14.276 L 50.776 14.276 Q 48.084 13.525 45.829 13.525 L 45.829 13.525 L 45.829 13.525 Q 43.105 13.525 40.945 14.417 L 40.945 14.417 L 40.945 14.417 Q 38.785 15.31 37.282 17 L 37.282 17 L 37.282 17 Q 35.779 18.691 34.98 21.102 L 34.98 21.102 L 34.98 21.102 Q 34.182 23.513 34.182 26.55 L 34.182 26.55 L 34.182 26.55 Q 34.182 29.587 34.98 31.998 L 34.98 31.998 L 34.98 31.998 Q 35.779 34.409 37.282 36.099 L 37.282 36.099 L 37.282 36.099 Q 38.785 37.79 40.945 38.682 L 40.945 38.682 L 40.945 38.682 Q 43.105 39.575 45.829 39.575 L 45.829 39.575 L 45.829 39.575 Q 48.084 39.575 50.776 38.823 L 50.776 38.823 L 50.776 38.823 Q 53.469 38.072 56.224 36.569 L 56.224 36.569 L 58.165 46.588 L 58.165 46.588 Q 54.659 48.279 51.121 48.889 L 51.121 48.889 L 51.121 48.889 Q 47.583 49.5 44.17 49.5 L 44.17 49.5 L 44.17 49.5 Q 39.285 49.5 34.933 47.919 L 34.933 47.919 L 34.933 47.919 Q 30.581 46.338 27.294 43.379 L 27.294 43.379 L 27.294 43.379 Q 24.006 40.42 22.081 36.162 L 22.081 36.162 L 22.081 36.162 Q 20.155 31.904 20.155 26.55 Z  M 66.838 48.592 L 66.838 0.5 L 80.364 0.5 L 80.364 48.592 L 66.838 48.592 Z  M 90.133 48.592 L 90.133 14.809 L 103.659 14.809 L 103.659 14.809 Q 103.471 15.873 103.283 17.548 L 103.283 17.548 L 103.283 17.548 Q 103.095 19.223 103.095 21.008 L 103.095 21.008 L 103.095 21.008 Q 104.16 19.411 105.772 18.112 L 105.772 18.112 L 105.772 18.112 Q 107.385 16.812 109.326 15.889 L 109.326 15.889 L 109.326 15.889 Q 111.267 14.965 113.443 14.464 L 113.443 14.464 L 113.443 14.464 Q 115.619 13.963 117.842 13.963 L 117.842 13.963 L 117.842 13.963 Q 120.284 13.963 122.476 14.699 L 122.476 14.699 L 122.476 14.699 Q 124.668 15.435 126.327 17.032 L 126.327 17.032 L 126.327 17.032 Q 127.986 18.628 128.957 21.18 L 128.957 21.18 L 128.957 21.18 Q 129.928 23.732 129.928 27.364 L 129.928 27.364 L 129.928 48.592 L 116.402 48.592 L 116.402 29.336 L 116.402 29.336 Q 116.402 27.395 115.995 26.112 L 115.995 26.112 L 115.995 26.112 Q 115.588 24.828 114.868 24.076 L 114.868 24.076 L 114.868 24.076 Q 114.147 23.325 113.161 23.012 L 113.161 23.012 L 113.161 23.012 Q 112.175 22.699 111.016 22.699 L 111.016 22.699 L 111.016 22.699 Q 109.764 22.699 108.543 23.121 L 108.543 23.121 L 108.543 23.121 Q 107.322 23.544 106.32 24.264 L 106.32 24.264 L 106.32 24.264 Q 105.318 24.984 104.598 25.955 L 104.598 25.955 L 104.598 25.955 Q 103.878 26.926 103.659 28.021 L 103.659 28.021 L 103.659 48.592 L 90.133 48.592 Z  M 152.878 29.869 L 165.277 14.809 L 179.147 14.809 L 166.278 30.714 L 179.773 48.592 L 164.118 48.592 L 153.942 32.655 L 152.878 33.751 L 152.878 48.592 L 139.352 48.592 L 139.352 0.5 L 152.878 0.5 L 152.878 29.869 Z  M 205.604 49.5 L 205.604 49.5 L 205.604 49.5 Q 202.16 49.5 199.029 48.733 L 199.029 48.733 L 199.029 48.733 Q 195.898 47.966 193.205 46.526 L 193.205 46.526 L 193.205 46.526 Q 190.512 45.085 188.336 43.019 L 188.336 43.019 L 188.336 43.019 Q 186.16 40.952 184.61 38.354 L 184.61 38.354 L 184.61 38.354 Q 183.061 35.755 182.215 32.687 L 182.215 32.687 L 182.215 32.687 Q 181.37 29.618 181.37 26.143 L 181.37 26.143 L 181.37 26.143 Q 181.37 21.071 183.389 16.891 L 183.389 16.891 L 183.389 16.891 Q 185.409 12.711 189.025 9.721 L 189.025 9.721 L 189.025 9.721 Q 192.641 6.731 197.635 5.103 L 197.635 5.103 L 197.635 5.103 Q 202.629 3.474 208.609 3.474 L 208.609 3.474 L 208.609 3.474 Q 211.834 3.474 215.435 3.96 L 215.435 3.96 L 215.435 3.96 Q 219.036 4.445 222.636 5.51 L 222.636 5.51 L 220.632 15.529 L 220.632 15.529 Q 217.408 14.37 214.746 13.916 L 214.746 13.916 L 214.746 13.916 Q 212.085 13.462 209.611 13.462 L 209.611 13.462 L 209.611 13.462 Q 206.324 13.462 203.694 14.386 L 203.694 14.386 L 203.694 14.386 Q 201.064 15.31 199.216 16.969 L 199.216 16.969 L 199.216 16.969 Q 197.369 18.628 196.383 20.992 L 196.383 20.992 L 196.383 20.992 Q 195.397 23.356 195.397 26.205 L 195.397 26.205 L 195.397 26.205 Q 195.397 29.368 196.054 31.841 L 196.054 31.841 L 196.054 31.841 Q 196.712 34.315 198.089 36.037 L 198.089 36.037 L 198.089 36.037 Q 199.467 37.759 201.58 38.667 L 201.58 38.667 L 201.58 38.667 Q 203.694 39.575 206.606 39.575 L 206.606 39.575 L 210.613 39.575 L 210.613 30.401 L 203.6 31.34 L 203.6 23.544 L 222.636 23.544 L 222.636 44.71 L 222.636 44.71 Q 220.319 46.087 218.159 47.011 L 218.159 47.011 L 218.159 47.011 Q 215.999 47.935 213.901 48.482 L 213.901 48.482 L 213.901 48.482 Q 211.803 49.03 209.752 49.265 L 209.752 49.265 L 209.752 49.265 Q 207.701 49.5 205.604 49.5 Z  M 251.817 49.5 L 251.817 49.5 L 251.817 49.5 Q 247.716 49.5 244.491 48.608 L 244.491 48.608 L 244.491 48.608 Q 241.266 47.715 238.808 46.134 L 238.808 46.134 L 238.808 46.134 Q 236.35 44.553 234.644 42.377 L 234.644 42.377 L 234.644 42.377 Q 232.937 40.201 231.857 37.649 L 231.857 37.649 L 231.857 37.649 Q 230.777 35.097 230.292 32.28 L 230.292 32.28 L 230.292 32.28 Q 229.806 29.462 229.806 26.55 L 229.806 26.55 L 229.806 26.55 Q 229.806 23.669 230.401 20.836 L 230.401 20.836 L 230.401 20.836 Q 230.996 18.002 232.186 15.435 L 232.186 15.435 L 232.186 15.435 Q 233.376 12.867 235.192 10.676 L 235.192 10.676 L 235.192 10.676 Q 237.008 8.484 239.45 6.887 L 239.45 6.887 L 239.45 6.887 Q 241.892 5.29 244.976 4.382 L 244.976 4.382 L 244.976 4.382 Q 248.06 3.474 251.817 3.474 L 251.817 3.474 L 251.817 3.474 Q 255.574 3.474 258.658 4.382 L 258.658 4.382 L 258.658 4.382 Q 261.742 5.29 264.2 6.887 L 264.2 6.887 L 264.2 6.887 Q 266.658 8.484 268.474 10.676 L 268.474 10.676 L 268.474 10.676 Q 270.29 12.867 271.495 15.435 L 271.495 15.435 L 271.495 15.435 Q 272.701 18.002 273.296 20.836 L 273.296 20.836 L 273.296 20.836 Q 273.891 23.669 273.891 26.55 L 273.891 26.55 L 273.891 26.55 Q 273.891 29.462 273.39 32.28 L 273.39 32.28 L 273.39 32.28 Q 272.889 35.097 271.808 37.649 L 271.808 37.649 L 271.808 37.649 Q 270.728 40.201 269.006 42.377 L 269.006 42.377 L 269.006 42.377 Q 267.284 44.553 264.842 46.134 L 264.842 46.134 L 264.842 46.134 Q 262.4 47.715 259.159 48.608 L 259.159 48.608 L 259.159 48.608 Q 255.919 49.5 251.817 49.5 Z  M 243.833 26.55 L 243.833 26.55 L 243.833 26.55 Q 243.833 30.307 244.381 32.968 L 244.381 32.968 L 244.381 32.968 Q 244.929 35.63 245.946 37.32 L 245.946 37.32 L 245.946 37.32 Q 246.964 39.011 248.451 39.794 L 248.451 39.794 L 248.451 39.794 Q 249.939 40.577 251.817 40.577 L 251.817 40.577 L 251.817 40.577 Q 253.696 40.577 255.183 39.794 L 255.183 39.794 L 255.183 39.794 Q 256.67 39.011 257.719 37.32 L 257.719 37.32 L 257.719 37.32 Q 258.768 35.63 259.316 32.968 L 259.316 32.968 L 259.316 32.968 Q 259.864 30.307 259.864 26.55 L 259.864 26.55 L 259.864 26.55 Q 259.864 22.793 259.316 20.116 L 259.316 20.116 L 259.316 20.116 Q 258.768 17.439 257.719 15.732 L 257.719 15.732 L 257.719 15.732 Q 256.67 14.026 255.183 13.212 L 255.183 13.212 L 255.183 13.212 Q 253.696 12.398 251.817 12.398 L 251.817 12.398 L 251.817 12.398 Q 249.939 12.398 248.451 13.212 L 248.451 13.212 L 248.451 13.212 Q 246.964 14.026 245.946 15.732 L 245.946 15.732 L 245.946 15.732 Q 244.929 17.439 244.381 20.116 L 244.381 20.116 L 244.381 20.116 Q 243.833 22.793 243.833 26.55 Z " fill="rgb(255,255,255)"/></g><circle vector-effect="non-scaling-stroke" cx="271.49537493200495" cy="41.15049427295561" r="8.349505727044402" fill="rgb(255,190,61)"/></g></g></svg>