<?xml version="1.0" encoding="UTF-8" standalone="no"?><!-- Generator: Gravit.io --><svg xmlns="http://www.w3.org/2000/svg" xmlns:xlink="http://www.w3.org/1999/xlink" style="isolation:isolate" viewBox="0 0 400 400" width="400pt" height="400pt"><defs><clipPath id="_clipPath_DtjRaElOjVxpIa3OYWmeF4LZrvkpYVxM"><rect width="400" height="400"/></clipPath></defs><g clip-path="url(#_clipPath_DtjRaElOjVxpIa3OYWmeF4LZrvkpYVxM)"><circle vector-effect="non-scaling-stroke" cx="200" cy="200" r="180" fill="rgb(4,175,144)"/><g><g opacity="0.8"><path d=" M 125.024 269.006 L 125.024 269.006 L 125.024 269.006 Q 114.696 269.006 105.308 266.706 L 105.308 266.706 L 105.308 266.706 Q 95.919 264.406 87.845 260.087 L 87.845 260.087 L 87.845 260.087 Q 79.771 255.768 73.245 249.572 L 73.245 249.572 L 73.245 249.572 Q 66.72 243.375 62.073 235.583 L 62.073 235.583 L 62.073 235.583 Q 57.426 227.79 54.891 218.589 L 54.891 218.589 L 54.891 218.589 Q 52.356 209.389 52.356 198.967 L 52.356 198.967 L 52.356 198.967 Q 52.356 183.758 58.411 171.224 L 58.411 171.224 L 58.411 171.224 Q 64.467 158.69 75.311 149.724 L 75.311 149.724 L 75.311 149.724 Q 86.155 140.758 101.13 135.876 L 101.13 135.876 L 101.13 135.876 Q 116.105 130.994 134.037 130.994 L 134.037 130.994 L 134.037 130.994 Q 143.707 130.994 154.504 132.449 L 154.504 132.449 L 154.504 132.449 Q 165.301 133.904 176.098 137.096 L 176.098 137.096 L 170.089 167.14 L 170.089 167.14 Q 160.419 163.666 152.438 162.305 L 152.438 162.305 L 152.438 162.305 Q 144.458 160.943 137.041 160.943 L 137.041 160.943 L 137.041 160.943 Q 127.183 160.943 119.297 163.713 L 119.297 163.713 L 119.297 163.713 Q 111.41 166.483 105.871 171.459 L 105.871 171.459 L 105.871 171.459 Q 100.332 176.435 97.374 183.523 L 97.374 183.523 L 97.374 183.523 Q 94.417 190.611 94.417 199.155 L 94.417 199.155 L 94.417 199.155 Q 94.417 208.638 96.388 216.055 L 96.388 216.055 L 96.388 216.055 Q 98.36 223.472 102.491 228.635 L 102.491 228.635 L 102.491 228.635 Q 106.622 233.799 112.959 236.522 L 112.959 236.522 L 112.959 236.522 Q 119.297 239.244 128.028 239.244 L 128.028 239.244 L 140.046 239.244 L 140.046 211.736 L 119.015 214.552 L 119.015 191.175 L 176.098 191.175 L 176.098 254.642 L 176.098 254.642 Q 169.15 258.773 162.672 261.542 L 162.672 261.542 L 162.672 261.542 Q 156.194 264.312 149.904 265.955 L 149.904 265.955 L 149.904 265.955 Q 143.613 267.598 137.464 268.302 L 137.464 268.302 L 137.464 268.302 Q 131.314 269.006 125.024 269.006 Z " fill="rgb(255,255,255)"/></g><g opacity="0.8"><path d=" M 263.6 269.006 L 263.6 269.006 L 263.6 269.006 Q 251.301 269.006 241.63 266.331 L 241.63 266.331 L 241.63 266.331 Q 231.96 263.655 224.59 258.914 L 224.59 258.914 L 224.59 258.914 Q 217.22 254.172 212.103 247.647 L 212.103 247.647 L 212.103 247.647 Q 206.986 241.122 203.747 233.47 L 203.747 233.47 L 203.747 233.47 Q 200.508 225.819 199.053 217.369 L 199.053 217.369 L 199.053 217.369 Q 197.598 208.919 197.598 200.188 L 197.598 200.188 L 197.598 200.188 Q 197.598 191.55 199.382 183.054 L 199.382 183.054 L 199.382 183.054 Q 201.165 174.557 204.733 166.858 L 204.733 166.858 L 204.733 166.858 Q 208.301 159.159 213.746 152.587 L 213.746 152.587 L 213.746 152.587 Q 219.192 146.015 226.515 141.227 L 226.515 141.227 L 226.515 141.227 Q 233.838 136.439 243.086 133.716 L 243.086 133.716 L 243.086 133.716 Q 252.333 130.994 263.6 130.994 L 263.6 130.994 L 263.6 130.994 Q 274.866 130.994 284.114 133.716 L 284.114 133.716 L 284.114 133.716 Q 293.362 136.439 300.732 141.227 L 300.732 141.227 L 300.732 141.227 Q 308.102 146.015 313.547 152.587 L 313.547 152.587 L 313.547 152.587 Q 318.993 159.159 322.607 166.858 L 322.607 166.858 L 322.607 166.858 Q 326.222 174.557 328.006 183.054 L 328.006 183.054 L 328.006 183.054 Q 329.79 191.55 329.79 200.188 L 329.79 200.188 L 329.79 200.188 Q 329.79 208.919 328.287 217.369 L 328.287 217.369 L 328.287 217.369 Q 326.785 225.819 323.546 233.47 L 323.546 233.47 L 323.546 233.47 Q 320.307 241.122 315.143 247.647 L 315.143 247.647 L 315.143 247.647 Q 309.98 254.172 302.656 258.914 L 302.656 258.914 L 302.656 258.914 Q 295.333 263.655 285.616 266.331 L 285.616 266.331 L 285.616 266.331 Q 275.899 269.006 263.6 269.006 Z " fill="rgb(255,255,255)"/></g><g opacity="0.8"><path d=" M 239.659 200.188 L 239.659 200.188 L 239.659 200.188 Q 239.659 211.454 241.302 219.434 L 241.302 219.434 L 241.302 219.434 Q 242.945 227.415 245.996 232.485 L 245.996 232.485 L 245.996 232.485 Q 249.047 237.554 253.507 239.902 L 253.507 239.902 L 253.507 239.902 Q 257.967 242.249 263.6 242.249 L 263.6 242.249 L 263.6 242.249 Q 269.233 242.249 273.693 239.902 L 273.693 239.902 L 273.693 239.902 Q 278.152 237.554 281.297 232.485 L 281.297 232.485 L 281.297 232.485 Q 284.443 227.415 286.086 219.434 L 286.086 219.434 L 286.086 219.434 Q 287.729 211.454 287.729 200.188 L 287.729 200.188 L 287.729 200.188 Q 287.729 188.921 286.086 180.894 L 286.086 180.894 L 286.086 180.894 Q 284.443 172.867 281.297 167.75 L 281.297 167.75 L 281.297 167.75 Q 278.152 162.633 273.693 160.192 L 273.693 160.192 L 273.693 160.192 Q 269.233 157.751 263.6 157.751 L 263.6 157.751 L 263.6 157.751 Q 257.967 157.751 253.507 160.192 L 253.507 160.192 L 253.507 160.192 Q 249.047 162.633 245.996 167.75 L 245.996 167.75 L 245.996 167.75 Q 242.945 172.867 241.302 180.894 L 241.302 180.894 L 241.302 180.894 Q 239.659 188.921 239.659 200.188 Z " fill="rgb(4,175,144)"/></g><circle vector-effect="non-scaling-stroke" cx="322.6073147938205" cy="243.96946430107914" r="25.036925475278565" fill="rgb(255,190,61)"/></g></g></svg>