<svg xmlns="http://www.w3.org/2000/svg" width="24.105" height="24.105" viewBox="0 0 24.105 24.105">
  <path id="icons8-instagram" d="M10.122,3A7.129,7.129,0,0,0,3,10.122v9.861a7.129,7.129,0,0,0,7.122,7.122h9.861a7.129,7.129,0,0,0,7.122-7.122V10.122A7.129,7.129,0,0,0,19.983,3Zm11.5,4.383a1.1,1.1,0,1,1-1.1,1.1A1.1,1.1,0,0,1,21.627,7.383ZM15.053,9.026a6.026,6.026,0,1,1-6.026,6.026A6.03,6.03,0,0,1,15.053,9.026Zm0,1.1a4.931,4.931,0,1,0,4.931,4.931A4.938,4.938,0,0,0,15.053,10.122Z" transform="translate(-3 -3)" fill="#fff"/>
</svg>
