<svg xmlns="http://www.w3.org/2000/svg" width="26.854" height="21.819" viewBox="0 0 26.854 21.819">
  <path id="icons8-twitter" d="M26.854,4.574a10.166,10.166,0,0,1-3.134.9,5.955,5.955,0,0,0,2.461-3.025,10.21,10.21,0,0,1-3.466,1.346A5.858,5.858,0,0,0,18.576,2a5.491,5.491,0,0,0-5.485,5.481A4.139,4.139,0,0,0,13.2,8.714,15.306,15.306,0,0,1,1.9,3.005a4.817,4.817,0,0,0-.782,2.8A5.611,5.611,0,0,0,3.58,10.392a7.958,7.958,0,0,1-2.461-.673v.114A5.431,5.431,0,0,0,5.481,15.2a5.746,5.746,0,0,1-1.451.223,3.068,3.068,0,0,1-1.01-.114A5.311,5.311,0,0,0,8.169,19.12a11.187,11.187,0,0,1-6.827,2.347A5.568,5.568,0,0,1,0,21.358a15.677,15.677,0,0,0,8.392,2.461c10.184,0,15.665-8.392,15.665-15.665V7.481a11.488,11.488,0,0,0,2.8-2.907" transform="translate(0 -2)" fill="#fff"/>
</svg>
