<?xml version="1.0" encoding="UTF-8" standalone="no"?><!-- Generator: Gravit.io --><svg xmlns="http://www.w3.org/2000/svg" xmlns:xlink="http://www.w3.org/1999/xlink" style="isolation:isolate" viewBox="0 0 260 50" width="260pt" height="50pt"><defs><clipPath id="_clipPath_Aop4cMQ4ey1REpoYmQEfeJi2bFU1wZMg"><rect width="260" height="50"/></clipPath></defs><g clip-path="url(#_clipPath_Aop4cMQ4ey1REpoYmQEfeJi2bFU1wZMg)"><g><g opacity="0.8"><path d=" M 0.155 26.55 L 0.155 26.55 L 0.155 26.55 Q 0.155 21.196 2.081 16.922 L 2.081 16.922 L 2.081 16.922 Q 4.006 12.648 7.294 9.658 L 7.294 9.658 L 7.294 9.658 Q 10.581 6.668 14.933 5.071 L 14.933 5.071 L 14.933 5.071 Q 19.285 3.474 24.17 3.474 L 24.17 3.474 L 24.17 3.474 Q 27.583 3.474 31.121 4.132 L 31.121 4.132 L 31.121 4.132 Q 34.659 4.789 38.165 6.512 L 38.165 6.512 L 36.224 16.531 L 36.224 16.531 Q 33.469 15.028 30.776 14.276 L 30.776 14.276 L 30.776 14.276 Q 28.084 13.525 25.829 13.525 L 25.829 13.525 L 25.829 13.525 Q 23.105 13.525 20.945 14.417 L 20.945 14.417 L 20.945 14.417 Q 18.785 15.31 17.282 17 L 17.282 17 L 17.282 17 Q 15.779 18.691 14.98 21.102 L 14.98 21.102 L 14.98 21.102 Q 14.182 23.513 14.182 26.55 L 14.182 26.55 L 14.182 26.55 Q 14.182 29.587 14.98 31.998 L 14.98 31.998 L 14.98 31.998 Q 15.779 34.409 17.282 36.099 L 17.282 36.099 L 17.282 36.099 Q 18.785 37.79 20.945 38.682 L 20.945 38.682 L 20.945 38.682 Q 23.105 39.575 25.829 39.575 L 25.829 39.575 L 25.829 39.575 Q 28.084 39.575 30.776 38.823 L 30.776 38.823 L 30.776 38.823 Q 33.469 38.072 36.224 36.569 L 36.224 36.569 L 38.165 46.588 L 38.165 46.588 Q 34.659 48.279 31.121 48.889 L 31.121 48.889 L 31.121 48.889 Q 27.583 49.5 24.17 49.5 L 24.17 49.5 L 24.17 49.5 Q 19.285 49.5 14.933 47.919 L 14.933 47.919 L 14.933 47.919 Q 10.581 46.338 7.294 43.379 L 7.294 43.379 L 7.294 43.379 Q 4.006 40.42 2.081 36.162 L 2.081 36.162 L 2.081 36.162 Q 0.155 31.904 0.155 26.55 Z  M 46.838 48.592 L 46.838 0.5 L 60.364 0.5 L 60.364 48.592 L 46.838 48.592 Z  M 70.133 48.592 L 70.133 14.809 L 83.659 14.809 L 83.659 14.809 Q 83.471 15.873 83.283 17.548 L 83.283 17.548 L 83.283 17.548 Q 83.095 19.223 83.095 21.008 L 83.095 21.008 L 83.095 21.008 Q 84.16 19.411 85.772 18.112 L 85.772 18.112 L 85.772 18.112 Q 87.385 16.812 89.326 15.889 L 89.326 15.889 L 89.326 15.889 Q 91.267 14.965 93.443 14.464 L 93.443 14.464 L 93.443 14.464 Q 95.619 13.963 97.842 13.963 L 97.842 13.963 L 97.842 13.963 Q 100.284 13.963 102.476 14.699 L 102.476 14.699 L 102.476 14.699 Q 104.668 15.435 106.327 17.032 L 106.327 17.032 L 106.327 17.032 Q 107.986 18.628 108.957 21.18 L 108.957 21.18 L 108.957 21.18 Q 109.928 23.732 109.928 27.364 L 109.928 27.364 L 109.928 48.592 L 96.402 48.592 L 96.402 29.336 L 96.402 29.336 Q 96.402 27.395 95.995 26.112 L 95.995 26.112 L 95.995 26.112 Q 95.588 24.828 94.868 24.076 L 94.868 24.076 L 94.868 24.076 Q 94.147 23.325 93.161 23.012 L 93.161 23.012 L 93.161 23.012 Q 92.175 22.699 91.016 22.699 L 91.016 22.699 L 91.016 22.699 Q 89.764 22.699 88.543 23.121 L 88.543 23.121 L 88.543 23.121 Q 87.322 23.544 86.32 24.264 L 86.32 24.264 L 86.32 24.264 Q 85.318 24.984 84.598 25.955 L 84.598 25.955 L 84.598 25.955 Q 83.878 26.926 83.659 28.021 L 83.659 28.021 L 83.659 48.592 L 70.133 48.592 Z  M 132.878 29.869 L 145.277 14.809 L 159.147 14.809 L 146.278 30.714 L 159.773 48.592 L 144.118 48.592 L 133.942 32.655 L 132.878 33.751 L 132.878 48.592 L 119.352 48.592 L 119.352 0.5 L 132.878 0.5 L 132.878 29.869 Z  M 185.604 49.5 L 185.604 49.5 L 185.604 49.5 Q 182.16 49.5 179.029 48.733 L 179.029 48.733 L 179.029 48.733 Q 175.898 47.966 173.205 46.526 L 173.205 46.526 L 173.205 46.526 Q 170.512 45.085 168.336 43.019 L 168.336 43.019 L 168.336 43.019 Q 166.16 40.952 164.61 38.354 L 164.61 38.354 L 164.61 38.354 Q 163.061 35.755 162.215 32.687 L 162.215 32.687 L 162.215 32.687 Q 161.37 29.618 161.37 26.143 L 161.37 26.143 L 161.37 26.143 Q 161.37 21.071 163.389 16.891 L 163.389 16.891 L 163.389 16.891 Q 165.409 12.711 169.025 9.721 L 169.025 9.721 L 169.025 9.721 Q 172.641 6.731 177.635 5.103 L 177.635 5.103 L 177.635 5.103 Q 182.629 3.474 188.609 3.474 L 188.609 3.474 L 188.609 3.474 Q 191.834 3.474 195.435 3.96 L 195.435 3.96 L 195.435 3.96 Q 199.036 4.445 202.636 5.51 L 202.636 5.51 L 200.632 15.529 L 200.632 15.529 Q 197.408 14.37 194.746 13.916 L 194.746 13.916 L 194.746 13.916 Q 192.085 13.462 189.611 13.462 L 189.611 13.462 L 189.611 13.462 Q 186.324 13.462 183.694 14.386 L 183.694 14.386 L 183.694 14.386 Q 181.064 15.31 179.216 16.969 L 179.216 16.969 L 179.216 16.969 Q 177.369 18.628 176.383 20.992 L 176.383 20.992 L 176.383 20.992 Q 175.397 23.356 175.397 26.205 L 175.397 26.205 L 175.397 26.205 Q 175.397 29.368 176.054 31.841 L 176.054 31.841 L 176.054 31.841 Q 176.712 34.315 178.089 36.037 L 178.089 36.037 L 178.089 36.037 Q 179.467 37.759 181.58 38.667 L 181.58 38.667 L 181.58 38.667 Q 183.694 39.575 186.606 39.575 L 186.606 39.575 L 190.613 39.575 L 190.613 30.401 L 183.6 31.34 L 183.6 23.544 L 202.636 23.544 L 202.636 44.71 L 202.636 44.71 Q 200.319 46.087 198.159 47.011 L 198.159 47.011 L 198.159 47.011 Q 195.999 47.935 193.901 48.482 L 193.901 48.482 L 193.901 48.482 Q 191.803 49.03 189.752 49.265 L 189.752 49.265 L 189.752 49.265 Q 187.701 49.5 185.604 49.5 Z  M 231.817 49.5 L 231.817 49.5 L 231.817 49.5 Q 227.716 49.5 224.491 48.608 L 224.491 48.608 L 224.491 48.608 Q 221.266 47.715 218.808 46.134 L 218.808 46.134 L 218.808 46.134 Q 216.35 44.553 214.644 42.377 L 214.644 42.377 L 214.644 42.377 Q 212.937 40.201 211.857 37.649 L 211.857 37.649 L 211.857 37.649 Q 210.777 35.097 210.292 32.28 L 210.292 32.28 L 210.292 32.28 Q 209.806 29.462 209.806 26.55 L 209.806 26.55 L 209.806 26.55 Q 209.806 23.669 210.401 20.836 L 210.401 20.836 L 210.401 20.836 Q 210.996 18.002 212.186 15.435 L 212.186 15.435 L 212.186 15.435 Q 213.376 12.867 215.192 10.676 L 215.192 10.676 L 215.192 10.676 Q 217.008 8.484 219.45 6.887 L 219.45 6.887 L 219.45 6.887 Q 221.892 5.29 224.976 4.382 L 224.976 4.382 L 224.976 4.382 Q 228.06 3.474 231.817 3.474 L 231.817 3.474 L 231.817 3.474 Q 235.574 3.474 238.658 4.382 L 238.658 4.382 L 238.658 4.382 Q 241.742 5.29 244.2 6.887 L 244.2 6.887 L 244.2 6.887 Q 246.658 8.484 248.474 10.676 L 248.474 10.676 L 248.474 10.676 Q 250.29 12.867 251.495 15.435 L 251.495 15.435 L 251.495 15.435 Q 252.701 18.002 253.296 20.836 L 253.296 20.836 L 253.296 20.836 Q 253.891 23.669 253.891 26.55 L 253.891 26.55 L 253.891 26.55 Q 253.891 29.462 253.39 32.28 L 253.39 32.28 L 253.39 32.28 Q 252.889 35.097 251.808 37.649 L 251.808 37.649 L 251.808 37.649 Q 250.728 40.201 249.006 42.377 L 249.006 42.377 L 249.006 42.377 Q 247.284 44.553 244.842 46.134 L 244.842 46.134 L 244.842 46.134 Q 242.4 47.715 239.159 48.608 L 239.159 48.608 L 239.159 48.608 Q 235.919 49.5 231.817 49.5 Z  M 223.833 26.55 L 223.833 26.55 L 223.833 26.55 Q 223.833 30.307 224.381 32.968 L 224.381 32.968 L 224.381 32.968 Q 224.929 35.63 225.946 37.32 L 225.946 37.32 L 225.946 37.32 Q 226.964 39.011 228.451 39.794 L 228.451 39.794 L 228.451 39.794 Q 229.939 40.577 231.817 40.577 L 231.817 40.577 L 231.817 40.577 Q 233.696 40.577 235.183 39.794 L 235.183 39.794 L 235.183 39.794 Q 236.67 39.011 237.719 37.32 L 237.719 37.32 L 237.719 37.32 Q 238.768 35.63 239.316 32.968 L 239.316 32.968 L 239.316 32.968 Q 239.864 30.307 239.864 26.55 L 239.864 26.55 L 239.864 26.55 Q 239.864 22.793 239.316 20.116 L 239.316 20.116 L 239.316 20.116 Q 238.768 17.439 237.719 15.732 L 237.719 15.732 L 237.719 15.732 Q 236.67 14.026 235.183 13.212 L 235.183 13.212 L 235.183 13.212 Q 233.696 12.398 231.817 12.398 L 231.817 12.398 L 231.817 12.398 Q 229.939 12.398 228.451 13.212 L 228.451 13.212 L 228.451 13.212 Q 226.964 14.026 225.946 15.732 L 225.946 15.732 L 225.946 15.732 Q 224.929 17.439 224.381 20.116 L 224.381 20.116 L 224.381 20.116 Q 223.833 22.793 223.833 26.55 Z " fill="rgb(255,255,255)"/></g><circle vector-effect="non-scaling-stroke" cx="251.49537493200492" cy="41.15049427295561" r="8.349505727044374" fill="rgb(255,190,61)"/></g></g></svg>